<svg width="15" height="11" viewBox="0 0 15 11" fill="none" xmlns="http://www.w3.org/2000/svg">
<g clip-path="url(#clip0_16_262)">
<path fill-rule="evenodd" clip-rule="evenodd" d="M13.929 9.75002C13.929 9.88302 13.803 10 13.661 10H1.339C1.197 10 1.071 9.88302 1.071 9.75002V3.75002C1.247 3.93702 1.44 4.10902 1.649 4.26502C2.846 5.12502 4.051 5.99902 5.215 6.90602C5.843 7.39802 6.621 7.99902 7.492 7.99902H7.5H7.508C8.379 7.99902 9.157 7.39802 9.785 6.90602C10.949 5.99902 12.154 5.12502 13.351 4.26502C13.56 4.10902 13.753 3.93702 13.929 3.75002V9.75002ZM13.929 1.53802C13.929 2.20302 13.242 3.07002 12.698 3.46802C11.576 4.28902 10.455 5.11702 9.341 5.94502C8.898 6.28102 8.094 7.00002 7.508 7.00002H7.5H7.492C6.906 7.00002 6.102 6.28102 5.658 5.94502C4.545 5.11702 3.423 4.28902 2.302 3.46802C1.548 2.91402 1.071 2.14002 1.071 1.25002C1.071 1.11702 1.197 1.00002 1.339 1.00002H13.661C13.979 1.00002 13.929 1.34302 13.929 1.53802ZM15 1.25002C15 0.562023 14.397 -0.000976562 13.661 -0.000976562H1.339C0.603 -0.000976562 0 0.562023 0 1.25002V9.75002C0 10.437 0.603 11 1.339 11H13.661C14.397 11 15 10.437 15 9.75002V1.25002Z" fill="#555555"/>
</g>
<defs>
<clipPath id="clip0_16_262">
<rect width="15" height="11" fill="white"/>
</clipPath>
</defs>
</svg>
