<svg width="12" height="20" viewBox="0 0 12 20" fill="none" xmlns="http://www.w3.org/2000/svg">
<g clip-path="url(#clip0_16_251)">
<path fill-rule="evenodd" clip-rule="evenodd" d="M7.25 18C7.25 18.687 6.687 19.249 6 19.249C5.312 19.249 4.75 18.687 4.75 18C4.75 17.312 5.312 16.75 6 16.75C6.687 16.75 7.25 17.312 7.25 18ZM10.5 15.5C10.5 15.765 10.266 16 10 16H2C1.734 16 1.5 15.765 1.5 15.5V4.499C1.5 4.234 1.734 4 2 4H10C10.266 4 10.5 4.234 10.5 4.499V15.5ZM7.5 2.25C7.5 2.39 7.391 2.499 7.25 2.499H4.75C4.609 2.499 4.5 2.39 4.5 2.25C4.5 2.109 4.609 1.999 4.75 1.999H7.25C7.391 1.999 7.5 2.109 7.5 2.25ZM12 1.999C12 0.906 11.094 0 10 0H2C0.906 0 0 0.906 0 1.999V18C0 19.094 0.906 19.999 2 19.999H10C11.094 19.999 12 19.094 12 18V1.999Z" fill="#555555"/>
</g>
<defs>
<clipPath id="clip0_16_251">
<rect width="12" height="20" fill="white"/>
</clipPath>
</defs>
</svg>
